<svg viewBox="0 0 72 48" xmlns="http://www.w3.org/2000/svg" role="img" aria-label="South Korean flag">
  <rect x="1" y="2" width="70" height="44" rx="2" fill="#fff" stroke="#d9d9de"/>
  <g transform="translate(36 24) rotate(-34)">
    <path d="M0-10A10 10 0 0 1 0 10 5 5 0 0 0 0 0 5 5 0 0 1 0-10" fill="#cd2e3a"/>
    <path d="M0-10A10 10 0 0 0 0 10 5 5 0 0 1 0 0 5 5 0 0 0 0-10" fill="#0f64af"/>
  </g>
  <g stroke="#111" stroke-width="2" stroke-linecap="square">
    <path d="m12 14 4-3m-2 7 4-3m-2 7 4-3M55 34l4-3m-2 7 4-3m-2 7 4-3M54 12l4 3m-2 1 4 3M13 34l4 3m-2 1 4 3"/>
  </g>
</svg>
