<svg xmlns="http://www.w3.org/2000/svg" viewBox="0 0 80 48" role="img" aria-label="Motorbike Collection">
  <g fill="#d4d7dc">
    <path fill-rule="evenodd" d="M17 23a12 12 0 1 0 0 24 12 12 0 0 0 0-24Zm0 5a7 7 0 1 1 0 14 7 7 0 0 1 0-14ZM64 23a12 12 0 1 0 0 24 12 12 0 0 0 0-24Zm0 5a7 7 0 1 1 0 14 7 7 0 0 1 0-14Z"/>
    <path d="m49 5 2-4h9l3 5-3 3h-5l11 25-4 2-12-27ZM28 15h13c4 0 8 3 9 7l-8 5H30l-7-5H9l-2-5h16l3 2 2-4Z"/>
    <path d="m29 26 7 2 6 10h10v4H34l-9-10h-8v-4h11Zm19-1 6-3 3 5-8 9h-6l-4-7Z"/>
  </g>
</svg>
